<svg xmlns="http://www.w3.org/2000/svg" width="622.777" height="628.851" viewBox="0 0 622.777 628.851">
  <g id="Uploading-bro" transform="translate(-17.264 -12.359)">
    <g id="freepik--background-simple--inject-2" transform="translate(17.264 47.584)">
      <path id="パス_149" data-name="パス 149" d="M437.464,50.05S334.776,13.6,233.979,71.68,82.307,245.209,38.633,337.652,20.088,524.134,97.044,566.95s129.279-20.328,237.223-23.4,136.975,12.35,226.616-48.635,105.705-204.947,35.052-311.51S437.464,50.05,437.464,50.05Z" transform="translate(-17.264 -38.761)" fill="#4790bb"/>
      <path id="パス_150" data-name="パス 150" d="M437.464,50.05S334.776,13.6,233.979,71.68,82.307,245.209,38.633,337.652,20.088,524.134,97.044,566.95s129.279-20.328,237.223-23.4,136.975,12.35,226.616-48.635,105.705-204.947,35.052-311.51S437.464,50.05,437.464,50.05Z" transform="translate(-17.264 -38.761)" fill="#fff" opacity="0.8"/>
    </g>
    <g id="freepik--Plant--inject-2" transform="translate(510.582 425.576)">
      <path id="パス_151" data-name="パス 151" d="M408.209,434.307a25.921,25.921,0,0,1-1.663-17.7c2.561-10.1,3.5-8.408.818-14.214s-4.975-7-3.393-11.988,4.331-12.779,3.339-17.5-3.138-6.7-2.172-11.76,4.023-7.549,2.508-13.114-4.023-5.364-3.057-10.419,2.333-5.511,1.944-10.111a14.455,14.455,0,0,1,.7-6.852s1.743,7.214,2.883,11.21a18.183,18.183,0,0,1,.764,9.226c-.563,2.91,6.048,7.952,6.249,10.258s1.6,4.841-.6,9.722-2.749,7.791-1.475,11.049,2.682,2.776,1.341,9.386-5.042,6.6-2.226,11.666,4.505,6.155,3.2,9.695-3.366,7.67-2.561,10.084a21.145,21.145,0,0,0,1.69,3.473,13.771,13.771,0,0,1,1.515,9.386l-.375,2,1.234,10.057-5.994,4.908S410.167,440.73,408.209,434.307Z" transform="translate(-378.921 -320.65)" fill="#4790bb"/>
      <path id="パス_152" data-name="パス 152" d="M407.554,429.85a19.551,19.551,0,0,1-4.961-14.267c.617-8.689,1.864-7.456-1.864-11.787s-6.2-4.961-5.578-9.306,1.864-11.17,0-14.9-4.345-4.961-4.345-9.293,2.481-6.825,0-11.17-4.961-3.728-4.961-8.046,1.234-8.046,0-11.787-.429-2.95-.429-2.95,2.91,6.061,4.774,9.158,2.481,4.961,2.481,7.442,7.442,5.592,8.046,7.442,2.481,3.728,1.247,8.045-1.247,6.825.617,9.306,3.1,1.85,3.1,7.442-3.714,6.2,0,9.923,5.592,4.345,4.961,7.442-1.85,6.825-.617,8.689a14.575,14.575,0,0,0,1.555,1.824,14.24,14.24,0,0,1,4.023,9.909h0l3.111,8.046-4.961,4.961S410.652,434.812,407.554,429.85Z" transform="translate(-385.158 -315.322)" fill="#4790bb"/>
      <path id="パス_153" data-name="パス 153" d="M431.06,429.643a19.551,19.551,0,0,0,4.961-14.267c-.617-8.689-1.864-7.456,1.864-11.787s6.2-4.961,5.578-9.306-1.864-11.17,0-14.9,4.345-4.961,4.345-9.293-2.481-6.825,0-11.17,4.961-3.728,4.961-8.046-1.234-8.046,0-11.787-.241-1.582-.241-1.582-2.239,4.693-4.1,7.791-2.481,4.961-2.481,7.442-7.442,5.592-8.045,7.442-2.481,3.728-1.247,8.046,1.247,6.825-.617,9.306-3.1,1.851-3.1,7.442,3.714,6.2,0,9.923-5.592,4.345-4.962,7.442,1.851,6.825.617,8.689a15.072,15.072,0,0,1-1.529,1.8,14.375,14.375,0,0,0-4.023,9.99h0l-3.111,8.046,4.961,4.961S427.962,434.6,431.06,429.643Z" transform="translate(-373.303 -315.114)" fill="#4790bb"/>
      <path id="パス_154" data-name="パス 154" d="M422.289,426.922a15.756,15.756,0,0,0,2.065-12.068c-1.636-6.839-2.454-5.686-.067-9.628s4.291-4.774,3.218-8.139-2.95-8.649-1.958-11.854,2.816-4.532,2.239-8.046-2.87-5.1-1.475-8.89,3.473-3.607,2.9-7.067-2.052-6.262-1.555-9.386-.577-2.32-.577-2.32a58.612,58.612,0,0,1-2.065,7.831,10.728,10.728,0,0,0-.992,6.249c.322,1.984-5.189,5.431-5.444,6.986s-1.489,3.3.08,6.584,1.877,5.27.724,7.5-2.226,1.891-1.489,6.343,3.781,4.438,1.341,7.9-3.875,4.184-2.963,6.584,2.373,5.176,1.636,6.825a36.879,36.879,0,0,1-3.714,5.176l.818,4.948-1.408,6.825,4.6,3.3S420.466,431.28,422.289,426.922Z" transform="translate(-375.461 -310.838)" fill="#4790bb"/>
      <path id="パス_155" data-name="パス 155" d="M446.776,403.45l-1.448,36.379h-4.036v28.052H400.34V439.829h-3.781L395.11,403.45Z" transform="translate(-381.765 -292.422)" fill="#263238" stroke="#263238" stroke-miterlimit="10" stroke-width="1"/>
      <path id="パス_156" data-name="パス 156" d="M396.647,430.58h-1.8v67.609h5.578V458.632" transform="translate(-381.853 -283.172)" fill="none" stroke="#263238" stroke-miterlimit="10" stroke-width="1"/>
      <path id="パス_157" data-name="パス 157" d="M433.59,430.58h1.542v67.609H429.54V458.632" transform="translate(-370.027 -283.172)" fill="none" stroke="#263238" stroke-miterlimit="10" stroke-width="1"/>
    </g>
    <g id="freepik--Clouds--inject-2" transform="translate(68.973 12.88)">
      <path id="パス_158" data-name="パス 158" d="M418.372,108.772a50.5,50.5,0,0,0-77.693-51.29A68.119,68.119,0,0,0,209.564,83.429v2.494a44.344,44.344,0,0,0,6.048,86.583v.469h200.6a32.182,32.182,0,0,0,2.159-64.2Z" transform="translate(-14.401 -12.065)" fill="none" stroke="#263238" stroke-linecap="round" stroke-linejoin="round" stroke-width="1"/>
      <path id="パス_159" data-name="パス 159" d="M154.644,144.061a20.956,20.956,0,0,0,.362-3.808,20.731,20.731,0,0,0-32.182-17.231,27.945,27.945,0,0,0-53.771,10.634c0,.349,0,.684,0,1.019a18.183,18.183,0,0,0,2.481,35.508v.268h82.239a13.181,13.181,0,0,0,.9-26.322Z" transform="translate(-55.826 18.78)" fill="none" stroke="#263238" stroke-linecap="round" stroke-linejoin="round" stroke-width="1"/>
      <path id="パス_160" data-name="パス 160" d="M425.413,38.371a13.317,13.317,0,0,0,.255-2.534,13.8,13.8,0,0,0-21.455-11.465,18.585,18.585,0,0,0-35.762,7.08v.684A12.068,12.068,0,0,0,370.1,55.749v.2h54.71a8.77,8.77,0,0,0,.59-17.512Z" transform="translate(47.723 -12.88)" fill="none" stroke="#263238" stroke-linecap="round" stroke-linejoin="round" stroke-width="1"/>
    </g>
    <g id="freepik--Device--inject-2" transform="translate(259.859 225.591)">
      <path id="パス_161" data-name="パス 161" d="M393.59,178.42H323.741l-2.91,5.364a18.129,18.129,0,0,1-31.7,0l-2.91-5.364h-69.9a13.315,13.315,0,0,0-13.49,13.141V551.385a13.315,13.315,0,0,0,13.49,13.154H393.59a13.315,13.315,0,0,0,13.49-13.154V191.561a13.315,13.315,0,0,0-13.49-13.141Z" transform="translate(-196.595 -169.155)" fill="#fff"/>
      <rect id="長方形_590" data-name="長方形 590" width="192.275" height="358.08" transform="translate(12.927 30.989)" fill="#4790bb"/>
      <path id="パス_162" data-name="パス 162" d="M264.01,314.185c0,1.019.4,1.636,1.341,1.636s1.341-.617,1.341-1.636v-8.6h1.18v8.6c0,1.7-.791,2.843-2.534,2.843s-2.508-1.14-2.508-2.843v-8.542h1.247Z" transform="translate(-176.139 -125.799)" fill="#263238"/>
      <path id="パス_163" data-name="パス 163" d="M269.927,305.623c1.77,0,2.521,1.046,2.521,2.749v1.341c0,1.783-.831,2.682-2.615,2.682H268.72v4.465h-1.26V305.61Zm-.094,5.685c.925,0,1.341-.429,1.341-1.5v-1.5c0-1.032-.375-1.542-1.341-1.542h-1.207v4.546Z" transform="translate(-174.561 -125.792)" fill="#263238"/>
      <path id="パス_164" data-name="パス 164" d="M272,316.86V305.61h1.26v10.111h3.218v1.14Z" transform="translate(-173.013 -125.792)" fill="#263238"/>
      <path id="パス_165" data-name="パス 165" d="M275.92,308.359c0-1.716.858-2.829,2.575-2.829s2.588,1.113,2.588,2.829v5.846c0,1.7-.845,2.829-2.588,2.829s-2.575-1.126-2.575-2.829Zm1.247,5.887c0,1.033.429,1.636,1.341,1.636s1.341-.6,1.341-1.636v-5.94c0-1.019-.416-1.636-1.341-1.636s-1.341.617-1.341,1.636Z" transform="translate(-171.677 -125.819)" fill="#263238"/>
      <path id="パス_166" data-name="パス 166" d="M282.006,314.6l-.442,2.266H280.41l2.159-11.25h1.81l2.186,11.237h-1.341l-.429-2.266Zm.161-1.073h2.508l-1.274-6.5Z" transform="translate(-170.146 -125.789)" fill="#263238"/>
      <path id="パス_167" data-name="パス 167" d="M288.362,305.62c1.757,0,2.561,1.059,2.561,2.789v5.685c0,1.716-.8,2.776-2.561,2.776H285.68V305.62Zm0,10.111c.9,0,1.341-.563,1.341-1.6v-5.779c0-1.033-.442-1.6-1.341-1.6h-1.341v8.971Z" transform="translate(-168.349 -125.789)" fill="#263238"/>
      <path id="パス_168" data-name="パス 168" d="M291.717,305.623V316.86H290.47V305.61Z" transform="translate(-166.716 -125.792)" fill="#263238"/>
      <path id="パス_169" data-name="パス 169" d="M293.476,316.86H292.35V305.61h1.6l2.6,8.139V305.61h1.113v11.25h-1.341l-2.883-9.1Z" transform="translate(-166.075 -125.792)" fill="#263238"/>
      <path id="パス_170" data-name="パス 170" d="M302.289,308.356v.965H301.1V308.3c0-1.019-.4-1.636-1.341-1.636s-1.341.617-1.341,1.636v5.9c0,1.019.416,1.636,1.341,1.636s1.341-.617,1.341-1.636V311.95h-1.153v-1.113h2.347V314.2c0,1.7-.8,2.829-2.548,2.829s-2.521-1.126-2.521-2.829v-5.833c0-1.7.8-2.829,2.521-2.829S302.289,306.653,302.289,308.356Z" transform="translate(-164.415 -125.816)" fill="#263238"/>
      <rect id="長方形_591" data-name="長方形 591" width="57.445" height="9.655" transform="translate(61.897 195.909)" fill="#fff" stroke="#263238" stroke-linecap="round" stroke-linejoin="round" stroke-width="1"/>
      <rect id="長方形_592" data-name="長方形 592" width="99.282" height="9.655" transform="translate(61.897 195.909)" fill="none" stroke="#263238" stroke-miterlimit="10" stroke-width="1"/>
      <rect id="長方形_593" data-name="長方形 593" width="14.093" height="7.724" transform="translate(182.352 14.428)" fill="none" stroke="#263238" stroke-linecap="round" stroke-linejoin="round" stroke-width="0.821"/>
      <rect id="長方形_594" data-name="長方形 594" width="10.982" height="7.724" transform="translate(182.352 14.428)" fill="#263238" stroke="#263238" stroke-linecap="round" stroke-linejoin="round" stroke-width="0.725"/>
      <rect id="長方形_595" data-name="長方形 595" width="1.985" height="3.406" transform="translate(196.405 16.587)" fill="#263238" stroke="#263238" stroke-linecap="round" stroke-linejoin="round" stroke-width="0.725"/>
      <rect id="長方形_596" data-name="長方形 596" width="2.588" height="4.425" transform="translate(17.861 16.829)" fill="#263238" stroke="#263238" stroke-linecap="round" stroke-linejoin="round" stroke-width="0.883"/>
      <rect id="長方形_597" data-name="長方形 597" width="2.588" height="5.981" transform="translate(21.924 15.273)" fill="#263238" stroke="#263238" stroke-linecap="round" stroke-linejoin="round" stroke-width="0.883"/>
      <rect id="長方形_598" data-name="長方形 598" width="2.588" height="7.818" transform="translate(25.987 13.436)" fill="#263238" stroke="#263238" stroke-linecap="round" stroke-linejoin="round" stroke-width="0.883"/>
      <line id="線_4" data-name="線 4" x2="191.725" transform="translate(12.484 24.794)" fill="none" stroke="#263238" stroke-linecap="round" stroke-linejoin="round" stroke-width="1"/>
      <path id="パス_171" data-name="パス 171" d="M418.615,304.436a1.435,1.435,0,0,0,1.435-1.421V264.691a1.435,1.435,0,0,0-1.435-1.421H414.9V189.934a18.424,18.424,0,0,0-18.424-18.424H216.6a18.424,18.424,0,0,0-18.424,18.424V568.075A18.424,18.424,0,0,0,216.6,586.513H396.476A18.424,18.424,0,0,0,414.9,568.088V337.449h3.714a1.435,1.435,0,0,0,1.435-1.435v-17.1a1.421,1.421,0,0,0-1.435-1.421H414.9V304.436Zm-9.95,249.3a13.315,13.315,0,0,1-13.49,13.155H217.905a13.315,13.315,0,0,1-13.49-13.154V193.917a13.315,13.315,0,0,1,13.49-13.141h69.876l2.91,5.364a18.129,18.129,0,0,0,31.7,0l2.91-5.364h69.876a13.315,13.315,0,0,1,13.49,13.141Z" transform="translate(-198.18 -171.51)" fill="#263238" stroke="#263238" stroke-linecap="round" stroke-linejoin="round" stroke-width="1"/>
    </g>
    <g id="freepik--Icons--inject-2" transform="translate(286.42 81.516)">
      <rect id="長方形_599" data-name="長方形 599" width="53.208" height="54.415" transform="translate(6.519 415.055) rotate(-8.31)" fill="#263238" stroke="#263238" stroke-linecap="round" stroke-linejoin="round" stroke-width="1"/>
      <path id="パス_172" data-name="パス 172" d="M264.444,383.06l-10.365,14.911-9.963-1.341a3.2,3.2,0,0,0-2.682.925L227.3,411.621l1.918,13.087,52.658-7.724-4.023-27.677-8.7-6.933a3.218,3.218,0,0,0-4.707.684Z" transform="translate(-214.813 44.205)" fill="#fff" stroke="#263238" stroke-linecap="round" stroke-linejoin="round" stroke-width="1"/>
      <path id="パス_173" data-name="パス 173" d="M241.7,390.808a6.866,6.866,0,1,0-7.63-5.82,6.785,6.785,0,0,0,7.63,5.819Z" transform="translate(-212.53 42.665)" fill="#fff" stroke="#263238" stroke-linecap="round" stroke-linejoin="round" stroke-width="1"/>
      <rect id="長方形_600" data-name="長方形 600" width="53.208" height="54.415" transform="translate(87.762 7.69) rotate(-8.31)" fill="#263238" stroke="#263238" stroke-linecap="round" stroke-linejoin="round" stroke-width="1"/>
      <path id="パス_174" data-name="パス 174" d="M325.007,79.247,314.641,94.131l-9.963-1.341A3.191,3.191,0,0,0,302,93.7L287.89,107.755l1.891,13.195,52.645-7.7L338.4,85.562l-8.716-6.933a3.2,3.2,0,0,0-4.68.617Z" transform="translate(-194.157 -59.355)" fill="#fff" stroke="#263238" stroke-linecap="round" stroke-linejoin="round" stroke-width="1"/>
      <path id="パス_175" data-name="パス 175" d="M302.282,87.018a6.866,6.866,0,1,0-7.643-5.82,6.785,6.785,0,0,0,7.643,5.82Z" transform="translate(-191.881 -60.904)" fill="#fff" stroke="#263238" stroke-linecap="round" stroke-linejoin="round" stroke-width="1"/>
      <rect id="長方形_601" data-name="長方形 601" width="53.061" height="54.265" transform="translate(100.786 172.046) rotate(21.161)" fill="#263238" stroke="#263238" stroke-linecap="round" stroke-linejoin="round" stroke-width="0.997"/>
      <path id="パス_176" data-name="パス 176" d="M329.866,217.215l-16.373,7.871-8.046-6.074a3.218,3.218,0,0,0-2.8-.536l-19.148,5.27-4.787,12.323,49.614,19.256,10.124-26.081L334.3,218.918a3.232,3.232,0,0,0-4.438-1.7Z" transform="translate(-197.286 -11.968)" fill="#fff" stroke="#263238" stroke-linecap="round" stroke-linejoin="round" stroke-width="1"/>
      <path id="パス_177" data-name="パス 177" d="M302.383,217a6.866,6.866,0,1,0-3.768-8.823A6.785,6.785,0,0,0,302.383,217Z" transform="translate(-190.667 -16.43)" fill="#fff" stroke="#263238" stroke-linecap="round" stroke-linejoin="round" stroke-width="1"/>
      <rect id="長方形_602" data-name="長方形 602" width="53.208" height="54.415" transform="translate(9.841 248.88) rotate(10.42)" fill="#263238" stroke="#263238" stroke-linecap="round" stroke-linejoin="round" stroke-width="1"/>
      <path id="パス_178" data-name="パス 178" d="M261.89,280.4,234.75,257.28l-6.45,35.065Z" transform="translate(-214.472 1.805)" fill="#fff" stroke="#263238" stroke-linecap="round" stroke-linejoin="round" stroke-width="1"/>
      <rect id="長方形_603" data-name="長方形 603" width="53.208" height="54.415" transform="translate(94.9 445.863)" fill="#263238" stroke="#263238" stroke-linecap="round" stroke-linejoin="round" stroke-width="1"/>
      <path id="パス_179" data-name="パス 179" d="M328.661,420.474,297.78,402.64V438.3Z" transform="translate(-190.785 51.362)" fill="#fff" stroke="#263238" stroke-linecap="round" stroke-linejoin="round" stroke-width="1"/>
      <rect id="長方形_604" data-name="長方形 604" width="53.208" height="54.415" transform="matrix(0.883, -0.47, 0.47, 0.883, 20.996, 78.595)" fill="#263238" stroke="#263238" stroke-linecap="round" stroke-linejoin="round" stroke-width="1"/>
      <path id="パス_180" data-name="パス 180" d="M280.1,125.03l-35.642-1.22,16.762,31.471Z" transform="translate(-208.963 -43.698)" fill="#fff" stroke="#263238" stroke-linecap="round" stroke-linejoin="round" stroke-width="1"/>
    </g>
    <g id="freepik--Arrows--inject-2" transform="translate(198.109 152.269)">
      <g id="グループ_23" data-name="グループ 23" transform="translate(0 149.071)" opacity="0.2">
        <path id="パス_181" data-name="パス 181" d="M437.137,255.864,415,228,392.86,255.864h8.662v41.944h26.953V255.864Z" transform="translate(-70.059 -228)" fill="none" stroke="#000" stroke-linecap="round" stroke-linejoin="round" stroke-width="1"/>
        <path id="パス_182" data-name="パス 182" d="M315.294,358.334,293.169,330.47,271.03,358.334h8.662v41.957h26.953V358.334Z" transform="translate(-111.594 -193.066)" fill="none" stroke="#000" stroke-linecap="round" stroke-linejoin="round" stroke-width="1"/>
        <path id="パス_183" data-name="パス 183" d="M361.494,288.794,339.355,260.93,317.23,288.794h8.649v41.944h26.953V288.794Z" transform="translate(-95.843 -216.773)" fill="none" stroke="#000" stroke-linecap="round" stroke-linejoin="round" stroke-width="1"/>
        <path id="パス_184" data-name="パス 184" d="M196.394,256.394,174.255,228.53,152.13,256.394h8.662v41.944h26.953V256.394Z" transform="translate(-152.13 -227.819)" fill="none" stroke="#000" stroke-linecap="round" stroke-linejoin="round" stroke-width="1"/>
      </g>
      <g id="グループ_24" data-name="グループ 24" transform="translate(1.448)" opacity="0.2">
        <path id="パス_185" data-name="パス 185" d="M197.487,144.694,175.349,116.83,153.21,144.694h8.662v41.944h26.953V144.694Z" transform="translate(-153.21 -116.83)" fill="none" stroke="#000" stroke-linecap="round" stroke-linejoin="round" stroke-width="1"/>
        <path id="パス_186" data-name="パス 186" d="M424.464,165.874,402.325,138.01,380.2,165.874h8.649v41.944h26.966V165.874Z" transform="translate(-75.824 -109.609)" fill="none" stroke="#000" stroke-linecap="round" stroke-linejoin="round" stroke-width="1"/>
        <path id="パス_187" data-name="パス 187" d="M271.474,220.744,249.335,192.88,227.21,220.744h8.649V262.7h26.953V220.744Z" transform="translate(-127.982 -90.903)" fill="none" stroke="#000" stroke-linecap="round" stroke-linejoin="round" stroke-width="1"/>
      </g>
    </g>
    <g id="freepik--Character--inject-2" transform="translate(61.742 297.585)">
      <path id="パス_188" data-name="パス 188" d="M59.774,444.58c-.724.241-7.268,23.721-8.957,26.819s2.682,5.806,4.841,7.509,8.475,9.2,15.5,11.626,16.708,1.931,15.488-.241S76.24,483.507,74.055,480.6s-5.082-15-5.082-15l8.716-16.949Z" transform="translate(-50.432 -150.409)" fill="#fff" stroke="#263238" stroke-linecap="round" stroke-linejoin="round" stroke-width="1"/>
      <path id="パス_189" data-name="パス 189" d="M75.752,448.787l-.51-.215L57.877,444.55A26.941,26.941,0,0,0,56,449.806a68.549,68.549,0,0,0,15.515,7.268Z" transform="translate(-48.536 -150.419)" fill="#263238" stroke="#263238" stroke-linecap="round" stroke-linejoin="round" stroke-width="1"/>
      <path id="パス_190" data-name="パス 190" d="M74.056,475.527c-1.609-2.145-3.607-9.293-4.546-12.886a18.257,18.257,0,0,0-3.929,2.481,14.752,14.752,0,0,0-2.9,3.392l-9.467-8.9a59.54,59.54,0,0,1-2.4,6.7c-1.7,3.151,2.682,5.806,4.841,7.509s8.475,9.2,15.5,11.626,16.708,1.931,15.488-.241S76.242,478.437,74.056,475.527Z" transform="translate(-50.434 -145.285)" fill="#4790bb" stroke="#263238" stroke-linecap="round" stroke-linejoin="round" stroke-width="1"/>
      <path id="パス_191" data-name="パス 191" d="M127.82,451.584s13.074,37.546,14.053,39.718,4.117,2.682,6.289,2.172,11.143-5.082,18.652-6.048,12.591-7.026,12.833-8.957-17.191,1.448-22.286,0-9.386-6.061-9.923-7.751-2.172-26.818-2.172-26.818Z" transform="translate(-24.051 -150.641)" fill="#fff" stroke="#263238" stroke-linecap="round" stroke-linejoin="round" stroke-width="1"/>
      <path id="パス_192" data-name="パス 192" d="M145.262,443.85,127.83,451.6l1.623,4.626a54.217,54.217,0,0,0,16.332-4.935C145.49,447.082,145.262,443.85,145.262,443.85Z" transform="translate(-24.047 -150.658)" fill="#263238" stroke="#263238" stroke-linecap="round" stroke-linejoin="round" stroke-width="1"/>
      <path id="パス_193" data-name="パス 193" d="M163.753,479.687c7.5-.965,12.591-7.026,12.833-8.957s-17.191,1.448-22.286,0a18.773,18.773,0,0,1-7.067-4.13,11.589,11.589,0,0,0-.188,1.462,15.165,15.165,0,0,0,.241,4.841s-6.611,3.393-10.486,5.189c1.046,2.95,1.8,5,2.011,5.471.965,2.172,4.117,2.682,6.289,2.172S156.243,480.653,163.753,479.687Z" transform="translate(-20.989 -142.902)" fill="#4790bb" stroke="#263238" stroke-linecap="round" stroke-linejoin="round" stroke-width="1"/>
      <path id="パス_194" data-name="パス 194" d="M112.088,279.077s5.605-1.743,13.771,7.952,25.478,59.229,25.478,59.229-3.567,9.708-12.766,8.18-24.767-51.8-24.767-51.8S108.025,275.644,112.088,279.077Z" transform="translate(-29.908 -206.936)" fill="#fff" stroke="#263238" stroke-linecap="round" stroke-linejoin="round" stroke-width="1"/>
      <path id="パス_195" data-name="パス 195" d="M97.521,264.5s3.915,11.076,2.078,16.091-14.066,2.762-20.114,10.151,7.6,59.711,7.6,59.711-14.294,27.663-17.3,45.658-4.841,74.475-5.364,77.009-7.6,30.439-6.222,30.2,12.444,5.994,15.9,7.147,5.069,1.85,5.069,1.85S98.554,483.5,104.32,469.889s11.988-44.733,11.988-44.733l32.048,84.4,21.213-5.994-3.688-74.716s-2.306-28.589-9.454-47.026a201.286,201.286,0,0,0-17.754-34.354s6.222-22.608,4.371-33.215S129.9,283.823,129.9,283.823s-5.753-.241-8.046-2.306S115.4,265.6,115.4,265.6Z" transform="translate(-47.845 -211.802)" fill="#263238" stroke="#263238" stroke-linecap="round" stroke-linejoin="round" stroke-width="1"/>
      <path id="パス_196" data-name="パス 196" d="M129.584,301.389l-6.557-16c-.536-.992-.872-1.555-.872-1.555s-5.753-.241-8.046-2.306-6.463-15.917-6.463-15.917L89.665,264.46s3.915,11.076,2.078,16.091c-1.086,2.977-5.753,3.419-10.634,4.774a18.156,18.156,0,0,1,7.456,9.038c4.251,11.224,8.126,15.876,8.126,15.876Z" transform="translate(-39.975 -211.816)" fill="#fff" stroke="#263238" stroke-linecap="round" stroke-linejoin="round" stroke-width="1"/>
      <path id="パス_197" data-name="パス 197" d="M106.615,269.287c-.7-2.105-1.153-3.634-1.153-3.634L87.48,264.5s3.151,8.944,2.454,14.442A38.108,38.108,0,0,0,106.615,269.287Z" transform="translate(-37.804 -211.802)" fill="#263238" stroke="#263238" stroke-linecap="round" stroke-linejoin="round" stroke-width="1"/>
      <line id="線_5" data-name="線 5" y1="29.179" x2="6.624" transform="translate(68.584 184.229)" fill="none" stroke="#858585" stroke-linecap="round" stroke-linejoin="round" stroke-width="1"/>
      <path id="パス_198" data-name="パス 198" d="M57.184,440.663l-.724,5.364A35.037,35.037,0,0,0,67.911,453.5a96.184,96.184,0,0,0,10.727,3.634L84,450.1a98.647,98.647,0,0,1-14.656-5.739C60.148,440.006,57.72,439,57.72,439Z" transform="translate(-48.379 -152.311)" fill="#fff" stroke="#263238" stroke-linecap="round" stroke-linejoin="round" stroke-width="1"/>
      <path id="パス_199" data-name="パス 199" d="M122.59,448.3l2.682,7.026s13.812-1.944,18.894-4.358,8.046-3.634,8.046-3.634l-.965-8.716Z" transform="translate(-25.834 -152.441)" fill="#fff" stroke="#263238" stroke-linecap="round" stroke-linejoin="round" stroke-width="1"/>
      <path id="パス_200" data-name="パス 200" d="M138.086,309.6c-1.837-10.607-13.141-30.426-13.141-30.426a23.972,23.972,0,0,1-5.243-.885c0,.147.121.268.174.416,1.153,2.776,5.538,14.992,5.538,14.992L99.36,296.46A81.462,81.462,0,0,1,95.2,287.7a19.537,19.537,0,0,0-7.107-8.046c-4.452,1.113-10.124,2.105-13.637,6.45-5.887,7.228,7.08,57.66,7.59,59.644,41.85.912,51.666-2.923,51.666-2.923S139.936,320.207,138.086,309.6Z" transform="translate(-42.764 -207.101)" fill="#4790bb" stroke="#263238" stroke-linecap="round" stroke-linejoin="round" stroke-width="1"/>
      <rect id="長方形_605" data-name="長方形 605" width="53.208" height="54.415" transform="translate(86.383 98.717) rotate(4.78)" fill="#263238" stroke="#263238" stroke-linecap="round" stroke-linejoin="round" stroke-width="1"/>
      <path id="パス_201" data-name="パス 201" d="M153.393,325.962,124.107,305.62l-2.977,35.534Z" transform="translate(-26.331 -197.784)" fill="#fff" stroke="#263238" stroke-linecap="round" stroke-linejoin="round" stroke-width="1"/>
      <path id="パス_202" data-name="パス 202" d="M89.719,290.989s-2.534-9.454-10.137-8.77-12.685,8.3-11.3,19.6,9.681,55.34,11.3,58.8,65.705,9.909,65.705,9.909,7.375,2.762,9.681,2.762,14.066-.456,15.22-1.837,2.534-2.306,1.623-3-7.388.241-9-.456a55.838,55.838,0,0,1-5.994-3.916s5.766-.469,6.7-1.153,3.915-3.232,1.609-3.232-5.766.7-8.756.7-9.386,2.293-9.386,2.293a244.887,244.887,0,0,1-24.525-8.341c-9.682-4.143-22.595-9.909-22.595-9.909Z" transform="translate(-44.427 -205.774)" fill="#fff" stroke="#263238" stroke-linecap="round" stroke-linejoin="round" stroke-width="1"/>
      <path id="パス_203" data-name="パス 203" d="M115.5,249.323s5.364-2.548,3.7-14.066-23.52-12-36-7.147-22.367,9.909-20.114,24.432,13.409,17.982,15.528,19.832,3.245,5.3,1.9,7.844-3.232,2.065-3.232,2.065-.228,2.548,6.222,3.232a11.733,11.733,0,0,0,12.176-8.287c.912-3.916-1.623-10.137,2.065-15.22s7.844-10.379,7.616-13.825-.469-4.854-.469-4.854Z" transform="translate(-46.231 -225.201)" fill="#263238" stroke="#263238" stroke-linecap="round" stroke-linejoin="round" stroke-width="1"/>
      <path id="パス_204" data-name="パス 204" d="M96.011,236.73a31.713,31.713,0,0,1-6.7,19.35c-7.107,8.689-10.727,9.48-10.727,9.48s-1.971,8.287,14.6,14.214,20.53-4.345,21.321-11.854-1.18-20.53-4.733-24.472S96.011,236.73,96.011,236.73Z" transform="translate(-40.863 -221.27)" fill="#fff" stroke="#263238" stroke-linecap="round" stroke-linejoin="round" stroke-width="1"/>
      <path id="パス_205" data-name="パス 205" d="M85.079,261.354s-6.7-11.049-10.258-4.345.791,11.063,5.525,11.063a20.516,20.516,0,0,0,7.5-1.193" transform="translate(-42.563 -215.092)" fill="#fff" stroke="#263238" stroke-linecap="round" stroke-linejoin="round" stroke-width="1"/>
      <path id="パス_206" data-name="パス 206" d="M96.42,245.25s1.85,4.143,4.385,4.143,5.069-1.609,3.915,1.341-2.534,3.688-2.534,3.688" transform="translate(-34.756 -218.365)" fill="none" stroke="#263238" stroke-linecap="round" stroke-linejoin="round" stroke-width="1"/>
      <path id="パス_207" data-name="パス 207" d="M91.78,256.489a12.792,12.792,0,0,0,11.76-1.609" transform="translate(-36.338 -215.082)" fill="none" stroke="#263238" stroke-linecap="round" stroke-linejoin="round" stroke-width="1"/>
      <path id="パス_208" data-name="パス 208" d="M93.84,248.378c.617,1.529.536,3.017-.174,3.3s-1.783-.738-2.4-2.28-.536-3,.174-3.285S93.223,246.836,93.84,248.378Z" transform="translate(-36.655 -218.087)" fill="#263238"/>
      <path id="パス_209" data-name="パス 209" d="M100.757,245.838c.617,1.529.536,3.017-.174,3.3s-1.783-.738-2.387-2.28-.55-3,.161-3.285S100.18,244.3,100.757,245.838Z" transform="translate(-34.292 -218.953)" fill="#263238"/>
      <path id="パス_210" data-name="パス 210" d="M160.037,307.458a5.364,5.364,0,0,0-3.714-.845c-1.716.188-4.023.63-4.023,1.5,0,1.341,6.369,2.776,8.314,1.341C161.526,308.812,160.909,308.048,160.037,307.458Z" transform="translate(-15.705 -197.463)" fill="#fff" stroke="#263238" stroke-linecap="round" stroke-linejoin="round" stroke-width="1"/>
      <path id="パス_211" data-name="パス 211" d="M160.737,310.1a5.484,5.484,0,0,0-3.714-.858c-1.716.2-4.023.63-4.023,1.515,0,1.341,6.369,2.762,8.314,1.341C162.226,311.441,161.6,310.676,160.737,310.1Z" transform="translate(-15.466 -196.564)" fill="#fff" stroke="#263238" stroke-linecap="round" stroke-linejoin="round" stroke-width="1"/>
      <path id="パス_212" data-name="パス 212" d="M160.537,312.89a5.485,5.485,0,0,0-3.714-.858c-1.716.2-4.023.63-4.023,1.515,0,1.341,6.369,2.776,8.314,1.341C162.026,314.244,161.409,313.48,160.537,312.89Z" transform="translate(-15.534 -195.613)" fill="#fff" stroke="#263238" stroke-linecap="round" stroke-linejoin="round" stroke-width="1"/>
      <path id="パス_213" data-name="パス 213" d="M158.3,315.3a4.143,4.143,0,0,0-2.789-.644c-1.341.147-3.057.483-3.057,1.14,0,1.046,4.787,2.078,6.235,1.046C159.423,316.321,158.953,315.744,158.3,315.3Z" transform="translate(-15.654 -194.713)" fill="#fff" stroke="#263238" stroke-linecap="round" stroke-linejoin="round" stroke-width="1"/>
    </g>
    <g id="freepik--Floor--inject-2" transform="translate(24.956 640.593)">
      <line id="線_6" data-name="線 6" x2="608.779" fill="none" stroke="#263238" stroke-linecap="round" stroke-linejoin="round" stroke-width="1"/>
    </g>
  </g>
</svg>
