<svg xmlns="http://www.w3.org/2000/svg" width="551.378" height="640.337" viewBox="0 0 551.378 640.337">
  <g id="グループ_31" data-name="グループ 31" transform="translate(64.103 31.246)">
    <g id="グループ_10" data-name="グループ 10" transform="translate(3352.404 -2491.921) rotate(-17)">
      <rect id="長方形_202" data-name="長方形 202" width="28.29" height="157.009" transform="translate(-3642.51 1748.706) rotate(-150)" fill="#2a5772"/>
      <path id="中マド_73" data-name="中マド 73" d="M164.158,28.29H0V0H180.492L164.158,28.29ZM181.056.143h0L180.81,0h.246V.142Z" transform="translate(-3722.162 1615.226)" fill="#4790bb"/>
      <path id="中マド_74" data-name="中マド 74" d="M57.834,114.316h0L0,14.145,24.5,0,74.167,86.026Z" transform="translate(-3709.619 1594.222)" fill="#b0d7d5"/>
      <path id="中マド_91" data-name="中マド 91" d="M187.564,28.29H0V0H171.231l16.333,28.29h0Z" transform="translate(-3722.162 1586.936)" fill="#b0d7d5"/>
      <path id="中マド_90" data-name="中マド 90" d="M85.079,176h0L0,28.638,16.333.348,16.133,0l85.28,147.709L85.079,176Z" transform="translate(-3738.143 1586.936)" fill="#2a5772"/>
      <rect id="長方形_252" data-name="長方形 252" width="28.29" height="157.009" transform="translate(-3642.51 1748.706) rotate(-150)" fill="#2a5772"/>
      <path id="中マド_93" data-name="中マド 93" d="M164.158,28.29H0V0H180.492L164.158,28.29ZM181.056.143h0L180.81,0h.246V.142Z" transform="translate(-3722.162 1615.226)" fill="#4790bb"/>
      <path id="中マド_94" data-name="中マド 94" d="M57.834,114.316h0L0,14.145,24.5,0,74.167,86.026Z" transform="translate(-3709.619 1594.222)" fill="#b0d7d5"/>
      <path id="中マド_114" data-name="中マド 114" d="M32.668,171.715H0L99.14,0l7.59,4.381L118,23.909,32.666,171.714Z" transform="translate(-3652.989 1591.091)" fill="#4790bb"/>
      <path id="中マド_96" data-name="中マド 96" d="M187.564,28.29H0V0H171.231l16.333,28.29h0Z" transform="translate(-3722.162 1586.936)" fill="#b0d7d5"/>
      <path id="中マド_111" data-name="中マド 111" d="M85.079,176h0L0,28.638,16.333.348,16.133,0l85.28,147.709L85.079,176Z" transform="translate(-3738.143 1586.936)" fill="#2a5772"/>
    </g>
    <g id="グループ_4" data-name="グループ 4" transform="matrix(-0.94, -0.342, 0.342, -0.94, -3928.303, 416.213)">
      <rect id="長方形_202-2" data-name="長方形 202" width="28.29" height="157.009" transform="translate(-3642.51 1748.706) rotate(-150)" fill="#2a5772"/>
      <path id="中マド_73-2" data-name="中マド 73" d="M164.158,28.29H0V0H180.492L164.158,28.29ZM181.056.143h0L180.81,0h.246V.142Z" transform="translate(-3722.162 1615.226)" fill="#4790bb"/>
      <path id="中マド_74-2" data-name="中マド 74" d="M57.834,114.316h0L0,14.145,24.5,0,74.167,86.026Z" transform="translate(-3709.619 1594.222)" fill="#b0d7d5"/>
      <path id="中マド_91-2" data-name="中マド 91" d="M187.564,28.29H0V0H171.231l16.333,28.29h0Z" transform="translate(-3722.162 1586.936)" fill="#b0d7d5"/>
      <path id="中マド_90-2" data-name="中マド 90" d="M85.079,176h0L0,28.638,16.333.348,16.133,0l85.28,147.709L85.079,176Z" transform="translate(-3738.143 1586.936)" fill="#2a5772"/>
      <rect id="長方形_252-2" data-name="長方形 252" width="28.29" height="157.009" transform="translate(-3642.51 1748.706) rotate(-150)" fill="#2a5772"/>
      <path id="中マド_93-2" data-name="中マド 93" d="M164.158,28.29H0V0H180.492L164.158,28.29ZM181.056.143h0L180.81,0h.246V.142Z" transform="translate(-3722.162 1615.226)" fill="#4790bb"/>
      <path id="中マド_94-2" data-name="中マド 94" d="M57.834,114.316h0L0,14.145,24.5,0,74.167,86.026Z" transform="translate(-3709.619 1594.222)" fill="#b0d7d5"/>
      <path id="中マド_114-2" data-name="中マド 114" d="M32.668,171.715H0L99.14,0l7.59,4.381L118,23.909,32.666,171.714Z" transform="translate(-3652.989 1591.091)" fill="#4790bb"/>
      <path id="中マド_96-2" data-name="中マド 96" d="M187.564,28.29H0V0H171.231l16.333,28.29h0Z" transform="translate(-3722.162 1586.936)" fill="#b0d7d5"/>
      <path id="中マド_111-2" data-name="中マド 111" d="M85.079,176h0L0,28.638,16.333.348,16.133,0l85.28,147.709L85.079,176Z" transform="translate(-3738.143 1586.936)" fill="#2a5772"/>
    </g>
    <g id="グループ_11" data-name="グループ 11" transform="translate(4130.191 93.204) rotate(19)">
      <rect id="長方形_202-3" data-name="長方形 202" width="28.29" height="157.009" transform="translate(-3642.51 1748.706) rotate(-150)" fill="#2a5772"/>
      <path id="中マド_73-3" data-name="中マド 73" d="M164.158,28.29H0V0H180.492L164.158,28.29ZM181.056.143h0L180.81,0h.246V.142Z" transform="translate(-3722.162 1615.226)" fill="#4790bb"/>
      <path id="中マド_74-3" data-name="中マド 74" d="M57.834,114.316h0L0,14.145,24.5,0,74.167,86.026Z" transform="translate(-3709.619 1594.222)" fill="#b0d7d5"/>
      <path id="中マド_91-3" data-name="中マド 91" d="M187.564,28.29H0V0H171.231l16.333,28.29h0Z" transform="translate(-3722.162 1586.936)" fill="#b0d7d5"/>
      <path id="中マド_90-3" data-name="中マド 90" d="M85.079,176h0L0,28.638,16.333.348,16.133,0l85.28,147.709L85.079,176Z" transform="translate(-3738.143 1586.936)" fill="#2a5772"/>
      <rect id="長方形_252-3" data-name="長方形 252" width="28.29" height="157.009" transform="translate(-3642.51 1748.706) rotate(-150)" fill="#2a5772"/>
      <path id="中マド_93-3" data-name="中マド 93" d="M164.158,28.29H0V0H180.492L164.158,28.29ZM181.056.143h0L180.81,0h.246V.142Z" transform="translate(-3722.162 1615.226)" fill="#4790bb"/>
      <path id="中マド_94-3" data-name="中マド 94" d="M57.834,114.316h0L0,14.145,24.5,0,74.167,86.026Z" transform="translate(-3709.619 1594.222)" fill="#b0d7d5"/>
      <path id="中マド_114-3" data-name="中マド 114" d="M32.668,171.715H0L99.14,0l7.59,4.381L118,23.909,32.666,171.714Z" transform="translate(-3652.989 1591.091)" fill="#4790bb"/>
      <path id="中マド_96-3" data-name="中マド 96" d="M187.564,28.29H0V0H171.231l16.333,28.29h0Z" transform="translate(-3722.162 1586.936)" fill="#b0d7d5"/>
      <path id="中マド_111-3" data-name="中マド 111" d="M85.079,176h0L0,28.638,16.333.348,16.133,0l85.28,147.709L85.079,176Z" transform="translate(-3738.143 1586.936)" fill="#2a5772"/>
    </g>
  </g>
</svg>
