<svg xmlns="http://www.w3.org/2000/svg" width="1768.06" height="1272.824" viewBox="0 0 1768.06 1272.824">
  <g id="グループ_29" data-name="グループ 29" transform="translate(-38.842 47.332)">
    <g id="グループ_5" data-name="グループ 5" transform="matrix(0.819, -0.574, 0.574, 0.819, 2804.516, -2812.423)">
      <rect id="長方形_486" data-name="長方形 486" width="60" height="333" transform="translate(-3923.315 1414.034) rotate(-150)" fill="#2a5772"/>
      <path id="中マド_198" data-name="中マド 198" d="M348.162,60H0V0H382.8L348.162,60ZM384,.3h0l-.521-.3H384V.3Z" transform="translate(-4092.249 1130.936)" fill="#4790bb"/>
      <path id="中マド_199" data-name="中マド 199" d="M122.66,242.453h0L0,30,51.962,0,157.3,182.453Z" transform="translate(-4065.647 1086.388)" fill="#b0d7d5"/>
      <path id="中マド_214" data-name="中マド 214" d="M180.443,373.277v0h0L0,60.737l34.641-60L34.215,0,215.085,313.275l-34.641,60Z" transform="translate(-4126.143 1070.936)" fill="#2a5772"/>
      <rect id="長方形_525" data-name="長方形 525" width="60" height="333" transform="translate(-3923.315 1414.034) rotate(-150)" fill="#2a5772"/>
      <path id="中マド_216" data-name="中マド 216" d="M348.162,60H0V0H382.8L348.162,60ZM384,.3h0l-.521-.3H384V.3Z" transform="translate(-4092.249 1130.936)" fill="#4790bb"/>
      <path id="中マド_217" data-name="中マド 217" d="M122.66,242.453h0L0,30,51.962,0,157.3,182.453Z" transform="translate(-4065.647 1086.388)" fill="#b0d7d5"/>
      <path id="中マド_220" data-name="中マド 220" d="M69.439,364.189H0L210.735,0l16.133,9.293L250.83,50.708,69.437,364.188Z" transform="translate(-3945.541 1079.749)" fill="#4790bb"/>
      <path id="中マド_221" data-name="中マド 221" d="M397.8,60H0V0H363.163L397.8,60h0Z" transform="translate(-4092.249 1070.936)" fill="#b0d7d5"/>
      <path id="中マド_236" data-name="中マド 236" d="M180.443,373.277v0h0L0,60.737l34.641-60L34.215,0,215.085,313.275l-34.641,60Z" transform="translate(-4126.143 1070.936)" fill="#2a5772"/>
    </g>
    <g id="グループ_6" data-name="グループ 6" transform="matrix(-0.695, 0.719, -0.719, -0.695, -288.99, 4626.989)">
      <rect id="長方形_486-2" data-name="長方形 486" width="60" height="333" transform="translate(-3923.315 1414.034) rotate(-150)" fill="#2a5772"/>
      <path id="中マド_198-2" data-name="中マド 198" d="M348.162,60H0V0H382.8L348.162,60ZM384,.3h0l-.521-.3H384V.3Z" transform="translate(-4092.249 1130.936)" fill="#4790bb"/>
      <path id="中マド_199-2" data-name="中マド 199" d="M122.66,242.453h0L0,30,51.962,0,157.3,182.453Z" transform="translate(-4065.647 1086.388)" fill="#b0d7d5"/>
      <path id="中マド_214-2" data-name="中マド 214" d="M180.443,373.277v0h0L0,60.737l34.641-60L34.215,0,215.085,313.275l-34.641,60Z" transform="translate(-4126.143 1070.936)" fill="#2a5772"/>
      <rect id="長方形_525-2" data-name="長方形 525" width="60" height="333" transform="translate(-3923.315 1414.034) rotate(-150)" fill="#2a5772"/>
      <path id="中マド_216-2" data-name="中マド 216" d="M348.162,60H0V0H382.8L348.162,60ZM384,.3h0l-.521-.3H384V.3Z" transform="translate(-4092.249 1130.936)" fill="#4790bb"/>
      <path id="中マド_217-2" data-name="中マド 217" d="M122.66,242.453h0L0,30,51.962,0,157.3,182.453Z" transform="translate(-4065.647 1086.388)" fill="#b0d7d5"/>
      <path id="中マド_220-2" data-name="中マド 220" d="M69.439,364.189H0L210.735,0l16.133,9.293L250.83,50.708,69.437,364.188Z" transform="translate(-3945.541 1079.749)" fill="#4790bb"/>
      <path id="中マド_221-2" data-name="中マド 221" d="M397.8,60H0V0H363.163L397.8,60h0Z" transform="translate(-4092.249 1070.936)" fill="#b0d7d5"/>
      <path id="中マド_236-2" data-name="中マド 236" d="M180.443,373.277v0h0L0,60.737l34.641-60L34.215,0,215.085,313.275l-34.641,60Z" transform="translate(-4126.143 1070.936)" fill="#2a5772"/>
    </g>
    <g id="グループ_8" data-name="グループ 8" transform="translate(5462.363 505.394) rotate(22)">
      <rect id="長方形_486-3" data-name="長方形 486" width="60" height="333" transform="translate(-3923.315 1414.034) rotate(-150)" fill="#2a5772"/>
      <path id="中マド_198-3" data-name="中マド 198" d="M348.162,60H0V0H382.8L348.162,60ZM384,.3h0l-.521-.3H384V.3Z" transform="translate(-4092.249 1130.936)" fill="#4790bb"/>
      <path id="中マド_199-3" data-name="中マド 199" d="M122.66,242.453h0L0,30,51.962,0,157.3,182.453Z" transform="translate(-4065.647 1086.388)" fill="#b0d7d5"/>
      <path id="中マド_214-3" data-name="中マド 214" d="M180.443,373.277v0h0L0,60.737l34.641-60L34.215,0,215.085,313.275l-34.641,60Z" transform="translate(-4126.143 1070.936)" fill="#2a5772"/>
      <rect id="長方形_525-3" data-name="長方形 525" width="60" height="333" transform="translate(-3923.315 1414.034) rotate(-150)" fill="#2a5772"/>
      <path id="中マド_216-3" data-name="中マド 216" d="M348.162,60H0V0H382.8L348.162,60ZM384,.3h0l-.521-.3H384V.3Z" transform="translate(-4092.249 1130.936)" fill="#4790bb"/>
      <path id="中マド_217-3" data-name="中マド 217" d="M122.66,242.453h0L0,30,51.962,0,157.3,182.453Z" transform="translate(-4065.647 1086.388)" fill="#b0d7d5"/>
      <path id="中マド_220-3" data-name="中マド 220" d="M69.439,364.189H0L210.735,0l16.133,9.293L250.83,50.708,69.437,364.188Z" transform="translate(-3945.541 1079.749)" fill="#4790bb"/>
      <path id="中マド_221-3" data-name="中マド 221" d="M397.8,60H0V0H363.163L397.8,60h0Z" transform="translate(-4092.249 1070.936)" fill="#b0d7d5"/>
      <path id="中マド_236-3" data-name="中マド 236" d="M180.443,373.277v0h0L0,60.737l34.641-60L34.215,0,215.085,313.275l-34.641,60Z" transform="translate(-4126.143 1070.936)" fill="#2a5772"/>
    </g>
  </g>
</svg>
